<?xml version="1.0" encoding="utf-8"?>
<!-- Generator: Adobe Illustrator 25.0.0, SVG Export Plug-In . SVG Version: 6.00 Build 0)  -->
<svg version="1.1" id="Ebene_1" xmlns="http://www.w3.org/2000/svg" xmlns:xlink="http://www.w3.org/1999/xlink" x="0px" y="0px"
	 viewBox="0 0 3122.67 1542.22" style="enable-background:new 0 0 3122.67 1542.22;" xml:space="preserve">
<style type="text/css">
	.st0{fill:none;stroke:#FFFFFF;stroke-width:13;stroke-miterlimit:10;}
	.st1{display:none;fill:url(#SVGID_1_);stroke:#000000;stroke-width:10;stroke-miterlimit:10;}
	.st2{fill:#333333;stroke:#FFFFFF;stroke-width:10;stroke-miterlimit:10;}
	.st3{fill:#C6C6C6;stroke:#FFFFFF;stroke-width:6;stroke-miterlimit:10;}
	.st4{fill:#B2B2B2;stroke:#FFFFFF;stroke-width:6;stroke-miterlimit:10;}
	.st5{fill:#9D9D9C;stroke:#FFFFFF;stroke-width:6;stroke-miterlimit:10;}
	.st6{fill:#FFFFFF;}
	.st7{font-family:'CourierNewPSMT';}
	.st8{font-size:291.6759px;}
	.st9{font-size:86.3842px;}
	.st10{letter-spacing:64;}
	.st11{fill:#FFFFFF;stroke:#FFFFFF;stroke-width:13;stroke-miterlimit:10;}
</style>
<path class="st0" d="M508.02,644.8H254.89c-11.15,0-16.63-13.58-5.8-20.46l268.6-258.45l255.82,257.76
	c7.81,7.81,2.28,21.15-8.76,21.15h-88.37l1.78-13.75l-36.9,19.76l-7.83-27.95L577.2,558.4l-1.37,21.94l-26.06,27.43"/>
<radialGradient id="SVGID_1_" cx="525.7407" cy="534.5247" r="108.8785" fx="523.4275" fy="639.0883" gradientUnits="userSpaceOnUse">
	<stop  offset="0.0187" style="stop-color:#E5D622"/>
	<stop  offset="0.1262" style="stop-color:#E5D521"/>
	<stop  offset="0.1649" style="stop-color:#E5D11E"/>
	<stop  offset="0.1925" style="stop-color:#E4CA18"/>
	<stop  offset="0.2147" style="stop-color:#E4BF10"/>
	<stop  offset="0.2306" style="stop-color:#E3B304"/>
	<stop  offset="0.325" style="stop-color:#DFA31D"/>
	<stop  offset="0.4876" style="stop-color:#D77F2E"/>
	<stop  offset="0.5032" style="stop-color:#D67B2E"/>
	<stop  offset="0.588" style="stop-color:#D3662E"/>
	<stop  offset="0.6646" style="stop-color:#D0592D"/>
	<stop  offset="0.7256" style="stop-color:#CF542C"/>
	<stop  offset="0.7723" style="stop-color:#CE4B2B"/>
	<stop  offset="0.9137" style="stop-color:#CA3528"/>
	<stop  offset="1" style="stop-color:#C92C27"/>
</radialGradient>
<path class="st1" d="M444.12,559.77c4.83-8.29,10.15-19.08,14.4-32.23c4.79-14.8,6.76-28.07,7.54-38.4
	c3.73,10.24,7.38,22.18,10.29,35.66c3.11,14.42,4.72,27.62,5.49,39.09c1.73-22.39,4.55-46.49,8.91-72
	c2.84-16.61,6.09-32.39,9.6-47.31c3.2,9.37,6.4,18.74,9.6,28.11c0.66-8.18,2.05-17.71,4.8-28.11c4.38-16.6,10.76-29.96,16.46-39.77
	c-0.12,15.45,0.87,33.53,4.11,53.49c2.36,14.49,5.51,27.57,8.91,39.09c3.2-2.3,7.8-2.23,11.66-8.34c6.22-9.85,6.85-23.58,6.86-28
	c5.19,9.44,12.48,25.46,15.09,46.63c2.46,19.97-0.24,36.4-2.74,46.63c3.66-0.6,10.53-2.27,17.14-7.54
	c11.18-8.93,13.29-21.56,13.71-24.69c1.3,11.29,1.91,28.9-3.43,49.37c-3.98,15.27-10,27.27-15.09,35.66
	c7.09-5.49,14.17-10.97,21.26-16.46l-11.12,25.67c-15.37,35.5-54.05,54.79-91.66,45.72h0c-7.84-2.45-30.07-10.51-46.4-33.14
	C437.86,598.87,443.01,566.03,444.12,559.77z"/>
<g>
	<path class="st2" d="M564.86,670.86l45.25,65.83l10.98-26.06l16.45,16.46L654,692.8l11.91,6.5c0.49-0.99,0.96-1.99,1.41-3.01
		l4.22-9.52l2.12-12.34c-5.57,4.22-11.13,8.43-16.7,12.65c5.2-8.39,11.35-20.38,15.42-35.66c5.46-20.47,4.84-38.08,3.51-49.37
		c-0.44,3.12-2.59,15.75-14.02,24.68c-6.76,5.28-13.79,6.94-17.53,7.54c2.56-10.23,5.32-26.66,2.8-46.63
		c-2.67-21.17-10.11-37.19-15.42-46.63c-0.01,4.42-0.65,18.15-7.01,28c-3.94,6.11-8.65,6.05-11.92,8.34
		c-3.48-11.52-6.71-24.6-9.11-39.08c-3.32-19.96-4.32-38.04-4.21-53.48c-5.82,9.81-12.34,23.17-16.82,39.77
		c-2.81,10.41-4.23,19.94-4.91,28.11c-3.27-9.37-6.54-18.74-9.81-28.11c-3.59,14.92-6.91,30.71-9.81,47.31
		c-3.79,21.68-6.45,42.34-8.24,61.79c-0.1,1.05-1.65,1.05-1.77,0c-0.95-8.88-2.44-18.57-4.71-28.89
		c-2.97-13.47-6.7-25.41-10.52-35.66c-0.8,10.33-2.81,23.59-7.71,38.4c-4.35,13.15-9.79,23.94-14.72,32.23
		c-0.79,4.37-3.58,21.72,2.34,42.01L540.17,712L564.86,670.86z"/>
</g>
<path class="st0" d="M676.34,645.14l-7.25,55.89L654,692.8l-16.46,34.29l-16.45-16.46l-10.98,26.06l-45.25-65.83L540.17,712
	l-39.77-43.89l7.58-23.2l-211.93-0.28v312.81c0,25.57,16.48,46.3,36.8,46.3h175.77V824.5c0-12.87,7.7-23.27,17.17-23.21l84.47,0.61
	c9.4,0.07,16.99,10.43,16.99,23.19v178.65h94.85c0-31.3,0-358.54,0-358.54L676.34,645.14z"/>
<path class="st0" d="M448,911.56h-61.78c-10.68,0-19.33-8.66-19.33-19.33v-71.78c0-10.68,8.66-19.33,19.33-19.33H448
	c10.68,0,19.33,8.66,19.33,19.33v71.78C467.33,902.9,458.68,911.56,448,911.56z"/>
<circle class="st3" cx="638.89" cy="454.67" r="37.33"/>
<path class="st4" d="M829.01,323.88c0,40.4-28.08,74.25-65.8,83.09c-1.99,32.57-29.03,58.36-62.1,58.36
	c-34.36,0-62.22-27.85-62.22-62.22c0-20.28,9.7-38.29,24.73-49.65c-3.41-9.22-5.27-19.18-5.27-29.58c0-47.13,38.2-85.34,85.33-85.34
	S829.01,276.75,829.01,323.88z"/>
<path class="st5" d="M918,227.11c0,64.8-52.53,117.33-117.33,117.33c-22.01,0-42.6-6.06-60.2-16.6
	c-10.89,7.12-23.92,11.27-37.91,11.27c-38.29,0-69.33-31.04-69.33-69.33c0-32.56,22.44-59.88,52.7-67.33
	c11.33-52.96,58.4-92.67,114.74-92.67C865.47,109.78,918,162.31,918,227.11z"/>
<text transform="matrix(1 0 0 1 774.4544 961.2586)" class="st6 st7 st8">mannstätten</text>
<text transform="matrix(1 0 0 1 308.4423 1102.5402)" class="st6 st7 st9 st10">FREIWILLIGE FEUERWEHR</text>
<line class="st11" x1="627.26" y1="1003.74" x2="2682.88" y2="1003.74"/>
</svg>
