<svg id="Ebene_1" data-name="Ebene 1" xmlns="http://www.w3.org/2000/svg" viewBox="0 0 2520.888 1054.474"><defs><style>.cls-1{fill:none;}.cls-1,.cls-2,.cls-3,.cls-4,.cls-5,.cls-8{stroke:#fff;stroke-miterlimit:10;}.cls-1,.cls-8{stroke-width:13px;}.cls-2{fill:#333;stroke-width:10px;}.cls-3{fill:#c6c6c6;}.cls-3,.cls-4,.cls-5{stroke-width:6px;}.cls-4{fill:#b2b2b2;}.cls-5{fill:#9d9d9c;}.cls-6{font-size:291.676px;}.cls-6,.cls-7,.cls-8{fill:#fff;}.cls-6,.cls-7{font-family:CourierNewPSMT, Courier New;}.cls-7{font-size:86.384px;letter-spacing:0.75em;}</style></defs><path class="cls-1" d="M508.02,644.8H254.885c-11.153,0-16.628-13.584-5.795-20.463l268.6-258.452L773.509,623.649a12.39,12.39,0,0,1-8.761,21.151H676.38l1.781-13.75-36.9,19.765L633.43,622.86,577.2,558.4l-1.37,21.94-26.06,27.43" transform="translate(-236.722 -106.78)"/><path class="cls-2" d="M564.86,670.86l45.25,65.83,10.98-26.06,16.45,16.46L654,692.8l11.911,6.5c.488-.99.963-1.989,1.413-3l4.216-9.522,2.119-12.34-16.7,12.647a131.572,131.572,0,0,0,18.928-85.024c-.439,3.122-2.586,15.754-14.021,24.684a38.443,38.443,0,0,1-17.526,7.543,127,127,0,0,0-12.618-93.253c-.006,4.415-.653,18.146-7.01,28-3.944,6.111-8.649,6.045-11.918,8.342a311.725,311.725,0,0,1-13.32-92.567,159.441,159.441,0,0,0-16.824,39.77,157.459,157.459,0,0,0-4.908,28.113l-9.814-28.113c-3.587,14.92-6.91,30.7-9.814,47.312-3.791,21.677-6.446,42.338-8.241,61.794a.889.889,0,0,1-1.766,0,265.937,265.937,0,0,0-15.231-64.541,162.291,162.291,0,0,1-22.433,70.625,94.194,94.194,0,0,0,2.342,42.013L540.17,712Z" transform="translate(-236.722 -106.78)"/><path class="cls-1" d="M676.336,645.139,669.09,701.03,654,692.8l-16.46,34.29-16.45-16.46-10.98,26.06-45.25-65.83L540.17,712,500.4,668.11l7.583-23.2-211.926-.284V957.442c0,25.571,16.476,46.3,36.8,46.3H508.63V824.5c0-12.866,7.7-23.273,17.17-23.205l84.47.611c9.4.068,16.99,10.435,16.99,23.192v178.65h94.854V645.2Z" transform="translate(-236.722 -106.78)"/><rect class="cls-1" x="130.167" y="694.331" width="100.444" height="110.444" rx="19.333"/><circle class="cls-3" cx="402.168" cy="347.887" r="37.333"/><path class="cls-4" d="M829.01,323.88a85.377,85.377,0,0,1-65.8,83.09,62.22,62.22,0,1,1-99.59-53.51,85.34,85.34,0,1,1,165.39-29.58Z" transform="translate(-236.722 -106.78)"/><path class="cls-5" d="M918,227.11A117.358,117.358,0,0,1,740.47,327.84a69.344,69.344,0,1,1-54.54-125.39A117.347,117.347,0,0,1,918,227.11Z" transform="translate(-236.722 -106.78)"/><text class="cls-6" transform="translate(537.733 854.479)">mannstätten</text><text class="cls-7" transform="translate(71.72 995.76)">FREIWILLIGE FEUERWEHR</text><line class="cls-8" x1="390.538" y1="896.963" x2="2446.159" y2="896.963"/></svg>